<svg xmlns="http://www.w3.org/2000/svg" width="1280" height="640" viewBox="0 0 1280 640">
  <rect width="1280" height="640" fill="#123847"></rect>
  <g transform="translate(81.8 67.3) scale(1.3)"><path d="M22 142 C56 146 86 168 106 204 C130 148 190 84 262 38 C272 32 282 27 289 26 C298 25 302 32 296 40 C240 88 186 156 148 236 C141 253 134 268 127 280 C121 292 108 292 102 280 C86 246 60 204 30 172 C20 162 14 148 22 142 Z" fill="#2c9ccd"></path>
  <text x="65" y="141" font-family="Montserrat, Arial, Helvetica, sans-serif" font-size="46" font-weight="600" letter-spacing="4" fill="#2c9ccd" stroke="#123847" stroke-width="9" paint-order="stroke" stroke-linejoin="round">COMMIT</text></g>
  <rect x="139" y="487" width="296" height="52" rx="26" fill="#2c9ccd"></rect>
  <text x="167" y="521" font-family="DejaVu Sans Mono, monospace" font-size="25" font-weight="bold" fill="#ffffff">commit-check.com</text>
  <g transform="translate(-439.6 104) scale(1.35)">
  <rect x="760" y="76" width="440" height="168" rx="14" fill="#16455a" stroke="#2a6b86"></rect>
  <text x="792" y="106" font-family="Liberation Sans, Arial, Helvetica, sans-serif" font-size="13" font-weight="bold" letter-spacing="1.1" fill="#8fb8c9">ALL CHECKS PASSED</text>
  <text x="792" y="132" font-family="DejaVu Sans Mono, monospace" font-size="17" fill="#4ec9a0">✔</text><text x="820" y="132" font-family="DejaVu Sans Mono, monospace" font-size="17" fill="#eaf4f8">message</text><text x="984" y="132" font-family="DejaVu Sans Mono, monospace" font-size="17" fill="#8fb8c9">feat: add pagination</text>
  <text x="792" y="162" font-family="DejaVu Sans Mono, monospace" font-size="17" fill="#4ec9a0">✔</text><text x="820" y="162" font-family="DejaVu Sans Mono, monospace" font-size="17" fill="#eaf4f8">branch</text><text x="984" y="162" font-family="DejaVu Sans Mono, monospace" font-size="17" fill="#8fb8c9">feat/pagination</text>
  <text x="792" y="192" font-family="DejaVu Sans Mono, monospace" font-size="17" fill="#4ec9a0">✔</text><text x="820" y="192" font-family="DejaVu Sans Mono, monospace" font-size="17" fill="#eaf4f8">author-email</text><text x="984" y="192" font-family="DejaVu Sans Mono, monospace" font-size="17" fill="#8fb8c9">dev@example.com</text>
  <text x="792" y="222" font-family="DejaVu Sans Mono, monospace" font-size="17" fill="#4ec9a0">✔</text><text x="820" y="222" font-family="DejaVu Sans Mono, monospace" font-size="17" fill="#eaf4f8">ai-attribution</text><text x="984" y="222" font-family="DejaVu Sans Mono, monospace" font-size="17" fill="#8fb8c9">no AI trailers</text>
  </g>
</svg>
